<svg xmlns="http://www.w3.org/2000/svg" fill="none" viewBox="0 0 256 256">
  <rect width="256" height="256" fill="url(#a)" rx="36"/>
  <path fill="#fff" d="M127.954 204c42 0 76.046-34.025 76.046-76V74.8c0-6.0469-2.404-11.8462-6.682-16.122C193.04 54.4021 187.237 52 181.186 52h-49.429v33.3412c0 7.6076.464 15.4888 4.456 21.9638 2.858 4.641 6.682 8.613 11.211 11.646 4.529 3.034 9.659 5.059 15.04 5.937l1.456.235c.601.205 1.122.593 1.491 1.109s.567 1.134.567 1.768c0 .634-.198 1.252-.567 1.768-.369.516-.89.904-1.491 1.109l-1.456.235c-7.863 1.284-15.123 5.003-20.756 10.633-5.634 5.63-9.355 12.886-10.64 20.744l-.235 1.455c-.206.6-.593 1.121-1.109 1.49-.517.369-1.135.567-1.77.567-.634 0-1.253-.198-1.769-.567-.516-.369-.904-.89-1.109-1.49l-.236-1.455c-.879-5.378-2.904-10.504-5.94-15.031-3.035-4.527-7.01-8.348-11.653-11.204-6.479-3.99-14.3649-4.454-21.977-4.454H52c1.9886 40.208 35.2319 72.2 75.954 72.2Z"/>
  <path fill="#fff" d="M84.7963 123.038H52V74.433c0-5.9496 2.3629-11.6555 6.5688-15.8625C62.7748 54.3635 68.4793 52 74.4274 52H123.02v32.8046c0 7.4851-.456 15.2394-4.381 21.6104-3.068 4.98-7.259 9.173-12.238 12.241-6.369 3.926-14.1214 4.382-21.6047 4.382Z"/>
  <defs>
    <linearGradient id="a" x1="128" x2="128" y1="0" y2="256" gradientUnits="userSpaceOnUse">
      <stop stop-color="color(display-p3 .2954 .2954 .2954)"/>
      <stop offset="1" stop-color="color(display-p3 .1203 .1203 .1203)"/>
    </linearGradient>
  </defs>
</svg>